<svg enable-background="new 0 0 512 512" version="1.1" viewBox="0 0 512 512" xml:space="preserve" xmlns="http://www.w3.org/2000/svg">
<path d="m388.9 266.3c-5.1-5-5.2-13.3-.1-18.4l47.2-47.9h-225c-7.2 0-13-5.8-13-13s5.8-13 13-13h224.9l-47.2-47.9c-5-5.1-5-13.3.1-18.4 5.1-5 13.3-5 18.4.1l69 70c1.1 1.2 2.1 2.5 2.7 4.1.7 1.6 1 3.3 1 5 0 3.4-1.3 6.6-3.7 9.1l-69 70c-5 5.2-13.2 5.3-18.3.3z"/>
<path d="m123.1 404.3c5.1-5 5.2-13.3.1-18.4l-47.1-47.9h224.9c7.2 0 13-5.8 13-13s-5.8-13-13-13h-224.9l47.2-47.9c5-5.1 5-13.3-.1-18.4-5.1-5-13.3-5-18.4.1l-69 70c-1.1 1.2-2.1 2.5-2.7 4.1-.7 1.6-1 3.3-1 5 0 3.4 1.3 6.6 3.7 9.1l69 70c5 5.2 13.2 5.3 18.3.3z"/>
</svg>
